<svg xmlns="http://www.w3.org/2000/svg" width="640" height="460" viewBox="0 0 640 460" role="img" aria-label="Ilustração de casa"><defs><linearGradient id="wall" x2="0" y2="1"><stop stop-color="#fffdfc"/><stop offset="1" stop-color="#f6f0ee"/></linearGradient><linearGradient id="floor" x2="0" y2="1"><stop stop-color="#ead4bd"/><stop offset="1" stop-color="#f7e9d9"/></linearGradient><filter id="shadow" x="-30%" y="-40%" width="160%" height="200%"><feGaussianBlur stdDeviation="12"/></filter></defs><rect width="640" height="460" rx="28" fill="url(#wall)"/><path d="M0 326H640V460H0Z" fill="url(#floor)"/><path d="M0 326H640" stroke="#ddc7bd" stroke-width="8"/><path d="M34 48h132v154H34z" rx="14" fill="#b8e8f1" stroke="#fdfdfb" stroke-width="14"/><path d="M100 48v154M34 125h132" stroke="#fff" stroke-width="9"/><circle cx="132" cy="87" r="14" fill="#ffdf8c"/><ellipse cx="320" cy="405" rx="218" ry="23" fill="#6f5f73" opacity=".14" filter="url(#shadow)"/><rect x="150" y="185" width="342" height="172" rx="21" fill="#5967b8"/><rect x="172" y="230" width="306" height="102" rx="18" fill="#fff"/><path d="M172 292h306v43H172z" fill="#ed849e"/><path d="M184 304c77-22 118-7 152 12 52 27 109-7 142-5" stroke="#f7b3c4" stroke-width="7" fill="none"/><rect x="183" y="236" width="112" height="50" rx="18" fill="#f5f7ff"/><rect x="353" y="236" width="112" height="50" rx="18" fill="#f5f7ff"/><path d="M170 352v23m300-23v23" stroke="#37416f" stroke-width="14" stroke-linecap="round"/><rect x="71" y="261" width="82" height="73" rx="7" fill="#a77772"/><circle cx="111" cy="285" r="5" fill="#ffdc99"/><path d="M522 254v-85" stroke="#835e6a" stroke-width="9"/><path d="M492 201h59l-16 39h-27z" fill="#e8b978"/></svg>