<svg xmlns="http://www.w3.org/2000/svg" width="640" height="460" viewBox="0 0 640 460" role="img" aria-label="Ilustração de casa"><defs><linearGradient id="wall" x2="0" y2="1"><stop stop-color="#fffdfc"/><stop offset="1" stop-color="#f6f0ee"/></linearGradient><linearGradient id="floor" x2="0" y2="1"><stop stop-color="#ead4bd"/><stop offset="1" stop-color="#f7e9d9"/></linearGradient><filter id="shadow" x="-30%" y="-40%" width="160%" height="200%"><feGaussianBlur stdDeviation="12"/></filter></defs><rect width="640" height="460" rx="28" fill="url(#wall)"/><path d="M0 326H640V460H0Z" fill="url(#floor)"/><path d="M0 326H640" stroke="#ddc7bd" stroke-width="8"/><path d="M34 48h132v154H34z" rx="14" fill="#b8e8f1" stroke="#fdfdfb" stroke-width="14"/><path d="M100 48v154M34 125h132" stroke="#fff" stroke-width="9"/><circle cx="132" cy="87" r="14" fill="#ffdf8c"/><ellipse cx="320" cy="405" rx="218" ry="23" fill="#6f5f73" opacity=".14" filter="url(#shadow)"/><path d="M305 48v101" stroke="#585a67" stroke-width="8"/><path d="M242 151h126l-33 47h-59z" fill="#ffd880"/><path d="M145 245h368v30H145z" fill="#a96c55"/><path d="M187 275v94m282-94v94" stroke="#98614c" stroke-width="15" stroke-linecap="round"/><path d="M116 241v83h99v-83m210 0v83h99v-83" stroke="#be8266" stroke-width="13" fill="none"/><path d="M121 316h91m216 0h92" stroke="#ae745a" stroke-width="16"/><ellipse cx="322" cy="244" rx="68" ry="9" fill="#fce6bb"/><path d="M308 239q-15-33 8-40 23 9 5 40" fill="#64b997"/></svg>